<?xml version="1.0" encoding="UTF-8"?>
<svg xmlns="http://www.w3.org/2000/svg" width="870" height="745" viewBox="0 0 870 745">
  <title>iG Logo Solid Glass Vector</title>
  <defs>
    <linearGradient id="bodyBlue" x1="16%" y1="9%" x2="88%" y2="92%">
      <stop offset="0%" stop-color="#001B60"/>
      <stop offset="35%" stop-color="#003A8C"/>
      <stop offset="65%" stop-color="#005FE8"/>
      <stop offset="100%" stop-color="#001E70"/>
    </linearGradient>
    <linearGradient id="highlight" x1="24%" y1="8%" x2="73%" y2="78%">
      <stop offset="0%" stop-color="#FFFFFF" stop-opacity="0.65"/>
      <stop offset="20%" stop-color="#9AD1FF" stop-opacity="0.38"/>
      <stop offset="55%" stop-color="#1A73E8" stop-opacity="0.08"/>
      <stop offset="100%" stop-color="#FFFFFF" stop-opacity="0"/>
    </linearGradient>
    <radialGradient id="rimGlow" cx="40%" cy="18%" r="80%">
      <stop offset="0%" stop-color="#66C7FF" stop-opacity="0.50"/>
      <stop offset="45%" stop-color="#0A62FF" stop-opacity="0.10"/>
      <stop offset="100%" stop-color="#00184F" stop-opacity="0"/>
    </radialGradient>
    <filter id="softShadow" x="-20%" y="-20%" width="140%" height="150%">
      <feDropShadow dx="0" dy="10" stdDeviation="10" flood-color="#002B75" flood-opacity="0.22"/>
    </filter>
    <filter id="innerGlow" x="-10%" y="-10%" width="120%" height="120%">
      <feGaussianBlur in="SourceAlpha" stdDeviation="2" result="blur"/>
      <feOffset dx="0" dy="-1" result="off"/>
      <feComposite in="off" in2="SourceAlpha" operator="in" result="inner"/>
      <feColorMatrix in="inner" type="matrix" values="0 0 0 0 0.4  0 0 0 0 0.78  0 0 0 0 1  0 0 0 0.7 0" result="glow"/>
      <feMerge>
        <feMergeNode in="SourceGraphic"/>
        <feMergeNode in="glow"/>
      </feMerge>
    </filter>
  </defs>
  <g filter="url(#softShadow)">
    <path d="M 789.0 112.0 L 774.0 95.0 L 751.0 76.0 L 723.0 60.0 L 696.0 50.0 L 647.0 41.0 L 593.0 41.0 L 562.0 45.0 L 516.0 56.0 L 465.0 75.0 L 422.0 97.0 L 379.0 125.0 L 338.0 158.0 L 301.0 193.0 L 254.0 247.0 L 222.0 292.0 L 214.0 297.0 L 207.0 293.0 L 207.0 221.0 L 205.0 215.0 L 197.0 209.0 L 191.0 209.0 L 180.0 216.0 L 120.0 272.0 L 92.0 306.0 L 68.0 343.0 L 47.0 395.0 L 40.0 449.0 L 40.0 656.0 L 42.0 670.0 L 47.0 680.0 L 55.0 687.0 L 66.0 691.0 L 164.0 691.0 L 178.0 687.0 L 189.0 680.0 L 199.0 670.0 L 208.0 655.0 L 216.0 651.0 L 259.0 680.0 L 286.0 692.0 L 310.0 699.0 L 345.0 704.0 L 386.0 704.0 L 419.0 700.0 L 472.0 687.0 L 518.0 669.0 L 582.0 634.0 L 650.0 586.0 L 658.0 590.0 L 658.0 671.0 L 663.0 682.0 L 670.0 688.0 L 679.0 691.0 L 777.0 691.0 L 791.0 687.0 L 804.0 679.0 L 822.0 660.0 L 827.0 648.0 L 827.0 476.0 L 824.0 470.0 L 814.0 463.0 L 502.0 462.0 L 489.0 468.0 L 444.0 509.0 L 394.0 549.0 L 336.0 585.0 L 309.0 594.0 L 287.0 594.0 L 272.0 587.0 L 262.0 570.0 L 262.0 555.0 L 267.0 539.0 L 293.0 491.0 L 337.0 430.0 L 394.0 362.0 L 454.0 299.0 L 512.0 245.0 L 580.0 190.0 L 630.0 157.0 L 660.0 143.0 L 676.0 139.0 L 701.0 141.0 L 707.0 144.0 L 716.0 155.0 L 719.0 172.0 L 715.0 191.0 L 702.0 218.0 L 681.0 250.0 L 671.0 273.0 L 671.0 286.0 L 678.0 297.0 L 687.0 301.0 L 785.0 301.0 L 805.0 292.0 L 819.0 276.0 L 826.0 259.0 L 829.0 230.0 L 828.0 206.0 L 823.0 180.0 L 815.0 157.0 Z M 230.0 55.0 L 221.0 47.0 L 208.0 42.0 L 176.0 42.0 L 136.0 56.0 L 106.0 75.0 L 78.0 102.0 L 57.0 134.0 L 48.0 164.0 L 48.0 178.0 L 54.0 195.0 L 64.0 205.0 L 78.0 211.0 L 106.0 212.0 L 139.0 202.0 L 183.0 175.0 L 213.0 145.0 L 233.0 111.0 L 238.0 93.0 L 238.0 73.0 Z" fill="url(#bodyBlue)" fill-rule="evenodd"/>
    <path d="M 789.0 112.0 L 774.0 95.0 L 751.0 76.0 L 723.0 60.0 L 696.0 50.0 L 647.0 41.0 L 593.0 41.0 L 562.0 45.0 L 516.0 56.0 L 465.0 75.0 L 422.0 97.0 L 379.0 125.0 L 338.0 158.0 L 301.0 193.0 L 254.0 247.0 L 222.0 292.0 L 214.0 297.0 L 207.0 293.0 L 207.0 221.0 L 205.0 215.0 L 197.0 209.0 L 191.0 209.0 L 180.0 216.0 L 120.0 272.0 L 92.0 306.0 L 68.0 343.0 L 47.0 395.0 L 40.0 449.0 L 40.0 656.0 L 42.0 670.0 L 47.0 680.0 L 55.0 687.0 L 66.0 691.0 L 164.0 691.0 L 178.0 687.0 L 189.0 680.0 L 199.0 670.0 L 208.0 655.0 L 216.0 651.0 L 259.0 680.0 L 286.0 692.0 L 310.0 699.0 L 345.0 704.0 L 386.0 704.0 L 419.0 700.0 L 472.0 687.0 L 518.0 669.0 L 582.0 634.0 L 650.0 586.0 L 658.0 590.0 L 658.0 671.0 L 663.0 682.0 L 670.0 688.0 L 679.0 691.0 L 777.0 691.0 L 791.0 687.0 L 804.0 679.0 L 822.0 660.0 L 827.0 648.0 L 827.0 476.0 L 824.0 470.0 L 814.0 463.0 L 502.0 462.0 L 489.0 468.0 L 444.0 509.0 L 394.0 549.0 L 336.0 585.0 L 309.0 594.0 L 287.0 594.0 L 272.0 587.0 L 262.0 570.0 L 262.0 555.0 L 267.0 539.0 L 293.0 491.0 L 337.0 430.0 L 394.0 362.0 L 454.0 299.0 L 512.0 245.0 L 580.0 190.0 L 630.0 157.0 L 660.0 143.0 L 676.0 139.0 L 701.0 141.0 L 707.0 144.0 L 716.0 155.0 L 719.0 172.0 L 715.0 191.0 L 702.0 218.0 L 681.0 250.0 L 671.0 273.0 L 671.0 286.0 L 678.0 297.0 L 687.0 301.0 L 785.0 301.0 L 805.0 292.0 L 819.0 276.0 L 826.0 259.0 L 829.0 230.0 L 828.0 206.0 L 823.0 180.0 L 815.0 157.0 Z M 230.0 55.0 L 221.0 47.0 L 208.0 42.0 L 176.0 42.0 L 136.0 56.0 L 106.0 75.0 L 78.0 102.0 L 57.0 134.0 L 48.0 164.0 L 48.0 178.0 L 54.0 195.0 L 64.0 205.0 L 78.0 211.0 L 106.0 212.0 L 139.0 202.0 L 183.0 175.0 L 213.0 145.0 L 233.0 111.0 L 238.0 93.0 L 238.0 73.0 Z" fill="url(#rimGlow)" fill-rule="evenodd" opacity="0.85"/>
    <path d="M 789.0 112.0 L 774.0 95.0 L 751.0 76.0 L 723.0 60.0 L 696.0 50.0 L 647.0 41.0 L 593.0 41.0 L 562.0 45.0 L 516.0 56.0 L 465.0 75.0 L 422.0 97.0 L 379.0 125.0 L 338.0 158.0 L 301.0 193.0 L 254.0 247.0 L 222.0 292.0 L 214.0 297.0 L 207.0 293.0 L 207.0 221.0 L 205.0 215.0 L 197.0 209.0 L 191.0 209.0 L 180.0 216.0 L 120.0 272.0 L 92.0 306.0 L 68.0 343.0 L 47.0 395.0 L 40.0 449.0 L 40.0 656.0 L 42.0 670.0 L 47.0 680.0 L 55.0 687.0 L 66.0 691.0 L 164.0 691.0 L 178.0 687.0 L 189.0 680.0 L 199.0 670.0 L 208.0 655.0 L 216.0 651.0 L 259.0 680.0 L 286.0 692.0 L 310.0 699.0 L 345.0 704.0 L 386.0 704.0 L 419.0 700.0 L 472.0 687.0 L 518.0 669.0 L 582.0 634.0 L 650.0 586.0 L 658.0 590.0 L 658.0 671.0 L 663.0 682.0 L 670.0 688.0 L 679.0 691.0 L 777.0 691.0 L 791.0 687.0 L 804.0 679.0 L 822.0 660.0 L 827.0 648.0 L 827.0 476.0 L 824.0 470.0 L 814.0 463.0 L 502.0 462.0 L 489.0 468.0 L 444.0 509.0 L 394.0 549.0 L 336.0 585.0 L 309.0 594.0 L 287.0 594.0 L 272.0 587.0 L 262.0 570.0 L 262.0 555.0 L 267.0 539.0 L 293.0 491.0 L 337.0 430.0 L 394.0 362.0 L 454.0 299.0 L 512.0 245.0 L 580.0 190.0 L 630.0 157.0 L 660.0 143.0 L 676.0 139.0 L 701.0 141.0 L 707.0 144.0 L 716.0 155.0 L 719.0 172.0 L 715.0 191.0 L 702.0 218.0 L 681.0 250.0 L 671.0 273.0 L 671.0 286.0 L 678.0 297.0 L 687.0 301.0 L 785.0 301.0 L 805.0 292.0 L 819.0 276.0 L 826.0 259.0 L 829.0 230.0 L 828.0 206.0 L 823.0 180.0 L 815.0 157.0 Z M 230.0 55.0 L 221.0 47.0 L 208.0 42.0 L 176.0 42.0 L 136.0 56.0 L 106.0 75.0 L 78.0 102.0 L 57.0 134.0 L 48.0 164.0 L 48.0 178.0 L 54.0 195.0 L 64.0 205.0 L 78.0 211.0 L 106.0 212.0 L 139.0 202.0 L 183.0 175.0 L 213.0 145.0 L 233.0 111.0 L 238.0 93.0 L 238.0 73.0 Z" fill="url(#highlight)" fill-rule="evenodd" opacity="0.55"/>
    <path d="M 789.0 112.0 L 774.0 95.0 L 751.0 76.0 L 723.0 60.0 L 696.0 50.0 L 647.0 41.0 L 593.0 41.0 L 562.0 45.0 L 516.0 56.0 L 465.0 75.0 L 422.0 97.0 L 379.0 125.0 L 338.0 158.0 L 301.0 193.0 L 254.0 247.0 L 222.0 292.0 L 214.0 297.0 L 207.0 293.0 L 207.0 221.0 L 205.0 215.0 L 197.0 209.0 L 191.0 209.0 L 180.0 216.0 L 120.0 272.0 L 92.0 306.0 L 68.0 343.0 L 47.0 395.0 L 40.0 449.0 L 40.0 656.0 L 42.0 670.0 L 47.0 680.0 L 55.0 687.0 L 66.0 691.0 L 164.0 691.0 L 178.0 687.0 L 189.0 680.0 L 199.0 670.0 L 208.0 655.0 L 216.0 651.0 L 259.0 680.0 L 286.0 692.0 L 310.0 699.0 L 345.0 704.0 L 386.0 704.0 L 419.0 700.0 L 472.0 687.0 L 518.0 669.0 L 582.0 634.0 L 650.0 586.0 L 658.0 590.0 L 658.0 671.0 L 663.0 682.0 L 670.0 688.0 L 679.0 691.0 L 777.0 691.0 L 791.0 687.0 L 804.0 679.0 L 822.0 660.0 L 827.0 648.0 L 827.0 476.0 L 824.0 470.0 L 814.0 463.0 L 502.0 462.0 L 489.0 468.0 L 444.0 509.0 L 394.0 549.0 L 336.0 585.0 L 309.0 594.0 L 287.0 594.0 L 272.0 587.0 L 262.0 570.0 L 262.0 555.0 L 267.0 539.0 L 293.0 491.0 L 337.0 430.0 L 394.0 362.0 L 454.0 299.0 L 512.0 245.0 L 580.0 190.0 L 630.0 157.0 L 660.0 143.0 L 676.0 139.0 L 701.0 141.0 L 707.0 144.0 L 716.0 155.0 L 719.0 172.0 L 715.0 191.0 L 702.0 218.0 L 681.0 250.0 L 671.0 273.0 L 671.0 286.0 L 678.0 297.0 L 687.0 301.0 L 785.0 301.0 L 805.0 292.0 L 819.0 276.0 L 826.0 259.0 L 829.0 230.0 L 828.0 206.0 L 823.0 180.0 L 815.0 157.0 Z M 230.0 55.0 L 221.0 47.0 L 208.0 42.0 L 176.0 42.0 L 136.0 56.0 L 106.0 75.0 L 78.0 102.0 L 57.0 134.0 L 48.0 164.0 L 48.0 178.0 L 54.0 195.0 L 64.0 205.0 L 78.0 211.0 L 106.0 212.0 L 139.0 202.0 L 183.0 175.0 L 213.0 145.0 L 233.0 111.0 L 238.0 93.0 L 238.0 73.0 Z" fill="none" stroke="#7FC7FF" stroke-width="5" stroke-opacity="0.32" stroke-linejoin="round"/>
    <path d="M 789.0 112.0 L 774.0 95.0 L 751.0 76.0 L 723.0 60.0 L 696.0 50.0 L 647.0 41.0 L 593.0 41.0 L 562.0 45.0 L 516.0 56.0 L 465.0 75.0 L 422.0 97.0 L 379.0 125.0 L 338.0 158.0 L 301.0 193.0 L 254.0 247.0 L 222.0 292.0 L 214.0 297.0 L 207.0 293.0 L 207.0 221.0 L 205.0 215.0 L 197.0 209.0 L 191.0 209.0 L 180.0 216.0 L 120.0 272.0 L 92.0 306.0 L 68.0 343.0 L 47.0 395.0 L 40.0 449.0 L 40.0 656.0 L 42.0 670.0 L 47.0 680.0 L 55.0 687.0 L 66.0 691.0 L 164.0 691.0 L 178.0 687.0 L 189.0 680.0 L 199.0 670.0 L 208.0 655.0 L 216.0 651.0 L 259.0 680.0 L 286.0 692.0 L 310.0 699.0 L 345.0 704.0 L 386.0 704.0 L 419.0 700.0 L 472.0 687.0 L 518.0 669.0 L 582.0 634.0 L 650.0 586.0 L 658.0 590.0 L 658.0 671.0 L 663.0 682.0 L 670.0 688.0 L 679.0 691.0 L 777.0 691.0 L 791.0 687.0 L 804.0 679.0 L 822.0 660.0 L 827.0 648.0 L 827.0 476.0 L 824.0 470.0 L 814.0 463.0 L 502.0 462.0 L 489.0 468.0 L 444.0 509.0 L 394.0 549.0 L 336.0 585.0 L 309.0 594.0 L 287.0 594.0 L 272.0 587.0 L 262.0 570.0 L 262.0 555.0 L 267.0 539.0 L 293.0 491.0 L 337.0 430.0 L 394.0 362.0 L 454.0 299.0 L 512.0 245.0 L 580.0 190.0 L 630.0 157.0 L 660.0 143.0 L 676.0 139.0 L 701.0 141.0 L 707.0 144.0 L 716.0 155.0 L 719.0 172.0 L 715.0 191.0 L 702.0 218.0 L 681.0 250.0 L 671.0 273.0 L 671.0 286.0 L 678.0 297.0 L 687.0 301.0 L 785.0 301.0 L 805.0 292.0 L 819.0 276.0 L 826.0 259.0 L 829.0 230.0 L 828.0 206.0 L 823.0 180.0 L 815.0 157.0 Z M 230.0 55.0 L 221.0 47.0 L 208.0 42.0 L 176.0 42.0 L 136.0 56.0 L 106.0 75.0 L 78.0 102.0 L 57.0 134.0 L 48.0 164.0 L 48.0 178.0 L 54.0 195.0 L 64.0 205.0 L 78.0 211.0 L 106.0 212.0 L 139.0 202.0 L 183.0 175.0 L 213.0 145.0 L 233.0 111.0 L 238.0 93.0 L 238.0 73.0 Z" fill="none" stroke="#001B5B" stroke-width="7" stroke-opacity="0.35" stroke-linejoin="round"/>
  </g>
</svg>
